<?xml version="1.0" encoding="UTF-8"?>
<svg id="logosandtypes_com" data-name="logosandtypes com" xmlns="http://www.w3.org/2000/svg" viewBox="0 0 150 150">
  <defs>
    <style>
      .cls-1 {
        fill: #1f673c;
      }

      .cls-2 {
        fill: none;
      }
    </style>
  </defs>
  <path class="cls-2" d="M0,0H150V150H0V0Z"/>
  <path id="path12" class="cls-1" d="M70.12,14.66H16.16v2.32c4.81,2.85,6.94,6.23,6.94,19.77V117.23c0,13.53-2.13,16.92-6.94,19.77v2.32h50.57c1.33,0,2.64-.02,3.93-.07,.48-5.12,1.02-12.53,1.37-19.93l.19-5.19c-.03-.29-.16-.5-.49-.16-4.38,4.61-4.61,3.9-6.42,3.37-2.03-.59-8.15-2.82-9.06-3.45-.81-.56-.58-.86,.35-1.26,4.62-1.95,14.43-6.32,15.8-6.89,.09-.04,.16-.13,.16-.23l.11-2.94c0-.19-.18-.33-.36-.26-2.39,.89-14.59,5.93-16.38,6.59-1.97,.73-3.09,.64-4.65-.45-1.2-.83-5.16-5.48-5.81-6.59-.24-.41-.51-.82,.27-.98,.74-.16,24.47-4.98,27-5.45,.12-.02,.21-.13,.22-.25l.12-2.89c0-.17-.14-.3-.3-.27-2.71,.42-21.14,3.68-23.19,4.01-2.21,.36-2.69-.48-3.45-1.45-.76-.96-3.33-6.55-3.61-7.08-.52-.96-.57-1.38,.35-1.45,7.72-.5,27.8-1.68,30.29-1.84,.13,0,.24-.12,.25-.25l.1-2.7c0-.16-.12-.28-.28-.28-2.59,.09-23.33,.72-24.71,.67-1.4-.05-2.01-.2-2.77-1.81-.69-1.44-1.56-7.63-1.64-8.31-.06-.52-.12-.93,.77-.76,7.05,1.31,26.04,3.41,28.6,3.73,.15,.02,.29-.1,.3-.26l.1-2.48c0-.13-.09-.25-.23-.27-2.17-.34-19.54-2.95-21.47-3.3-2.06-.38-2.43-.77-2.91-2.27-.33-1.04-.69-6.12-.69-6.66,0-.57-.06-.9,.71-.67,11.73,3.43,22.55,6.16,24.52,6.65,.17,.04,.32-.08,.33-.25l.09-2.4c0-.13-.07-.24-.2-.27-1.87-.5-16.02-4.3-17.2-4.7-1.34-.45-2.47-1.08-2.73-2.64-.26-1.58-.29-4.97-.24-5.72,.05-.77,.14-.97,.78-.66,5.32,2.63,17.3,7.11,19.48,7.92,.17,.06,.35-.06,.36-.24l.09-2.32c0-.11-.06-.21-.16-.26-1.45-.59-11.62-4.75-13.3-5.48-1.63-.71-1.95-1.28-2.11-2.78-.09-.81-.12-3.05,.08-4.4,.13-.85,.06-1.06,1.35-.29,2.58,1.54,11.99,6.44,13.98,7.47,.17,.09,.38-.03,.39-.23l.09-2.28c0-.1-.05-.2-.14-.24-1.01-.54-7.03-3.77-8.44-4.54-1.83-1-2.35-1.78-2.39-2.64-.08-1.6,.09-3.46,.18-4.14,.16-1.19,.43-1.35,1.21-.72,3.39,2.71,8.03,5.75,9.39,6.63,.17,.11,.4,0,.41-.21l.08-2.04c0-.09-.03-.16-.1-.22-.79-.63-5.82-4.28-5.82-4.28,0,0-.66-.6-.65-1.23,0-1.12,.39-3.37,.53-3.76,.18-.5,.29-.78,.84-.23,2.46,2.46,4,3.73,5.01,4.56,.28,.23,.39,.28,.39,.04,0-2.34-1.06-6.98,1.25-8.26,.04-.02,.08-.03,.12-.03s.09,.01,.13,.03c2.31,1.28,1.25,5.92,1.25,8.26,0,.24,.1,.19,.38-.04,1.01-.83,2.56-2.1,5.01-4.56,.55-.55,.66-.27,.84,.23,.14,.4,.52,2.64,.53,3.76,0,.63-.65,1.23-.65,1.23,0,0-5.03,3.65-5.82,4.28-.06,.05-.1,.13-.1,.22l.08,2.04c0,.2,.24,.32,.41,.21,1.36-.88,6.01-3.92,9.4-6.63,.78-.62,1.05-.46,1.21,.72,.09,.67,.26,2.54,.18,4.14-.04,.86-.56,1.63-2.39,2.64-1.41,.77-7.43,4-8.44,4.54-.09,.05-.14,.14-.14,.24l.09,2.28c0,.19,.22,.32,.39,.23,1.99-1.03,11.39-5.93,13.98-7.47,1.29-.77,1.23-.56,1.35,.29,.2,1.35,.17,3.58,.08,4.4-.16,1.49-.47,2.07-2.11,2.78-1.68,.73-11.85,4.89-13.3,5.48-.1,.04-.17,.14-.17,.26l.09,2.32c0,.18,.19,.3,.36,.24,2.18-.81,14.16-5.29,19.48-7.92,.63-.31,.73-.11,.77,.66,.05,.75,.02,4.14-.24,5.72-.25,1.56-1.38,2.19-2.73,2.64-1.18,.4-15.33,4.2-17.21,4.7-.12,.03-.2,.14-.19,.27l.09,2.4c0,.17,.16,.29,.33,.25,1.96-.49,12.79-3.23,24.51-6.65,.77-.23,.72,.11,.72,.67,0,.54-.36,5.63-.69,6.66-.48,1.5-.85,1.89-2.92,2.27-1.92,.35-19.29,2.96-21.47,3.3-.13,.02-.23,.14-.22,.27l.09,2.48c0,.16,.14,.27,.3,.26,2.56-.32,21.54-2.42,28.6-3.73,.89-.16,.83,.25,.77,.76-.08,.68-.95,6.87-1.64,8.31-.76,1.61-1.37,1.76-2.77,1.81-1.38,.05-22.12-.59-24.71-.67-.15,0-.28,.12-.27,.28l.1,2.7c0,.13,.11,.24,.25,.25,2.49,.16,22.57,1.34,30.29,1.84,.92,.06,.88,.48,.36,1.45-.29,.53-2.85,6.12-3.61,7.08-.76,.96-1.24,1.81-3.45,1.45-2.05-.34-20.48-3.59-23.19-4.01-.16-.02-.31,.11-.3,.27l.12,2.89c0,.12,.09,.23,.21,.25,2.53,.47,26.25,5.29,27,5.45,.78,.16,.52,.57,.27,.98-.65,1.11-4.61,5.76-5.81,6.59-1.57,1.09-2.68,1.18-4.65,.45-1.79-.66-13.99-5.69-16.38-6.59-.18-.07-.37,.07-.36,.26l.12,2.94c0,.1,.07,.2,.16,.23,1.37,.58,11.18,4.95,15.8,6.89,.93,.39,1.16,.69,.35,1.26-.91,.63-7.03,2.86-9.06,3.45-1.81,.53-2.04,1.24-6.42-3.37-.33-.34-.46-.13-.49,.16l.19,5.19c.33,6.87,.82,13.75,1.27,18.8,36.11-5.69,55.2-31,55.2-64.15S114.81,14.66,70.12,14.66"/>
</svg>